# xmcd
#
# Track frame offsets: 
#        182
#        17480
#        40660
#        61015
#        80680
#        101790
#        119770
#        141612
#        157117
#
# Disc length: 2316 seconds
#
# Revision: 34
# Processed by: cddbd v1.5.2PL0 Copyright (c) Steve Scherf et al.
# Submitted via: ExactAudioCopyFreeDBPlugin 1.0
#
DISCID=7b090a09
DTITLE=Marla Glen - This Is Marla Glen
DYEAR=1993
DGENRE=Rhythm and Blues
TTITLE0=The Cost Of Freedom
TTITLE1=Believer
TTITLE2=Destiny (To Get Up Again)
TTITLE3=Enough
TTITLE4=Personal
TTITLE5=Control
TTITLE6=Travel
TTITLE7=Feet On The Ground
TTITLE8=You Hurt Me
EXTD=YEAR: 1993
EXTT0=
EXTT1=
EXTT2=
EXTT3=
EXTT4=
EXTT5=
EXTT6=
EXTT7=
EXTT8=
PLAYORDER=
